<svg width="93" height="82" viewBox="0 0 93 82" fill="none" xmlns="http://www.w3.org/2000/svg">
<path d="M90.0718 19.0705C90.2989 19.4639 90.52 19.861 90.7351 20.2619C90.3445 20.0064 90.0835 19.5693 90.0718 19.0705Z" fill="#D5E3FF"/>
<path d="M82.0542 8.96129C82.7365 9.60162 83.3984 10.2635 84.0387 10.9458C83.7911 11.4035 83.3068 11.7143 82.75 11.7143C81.9413 11.7143 81.2857 11.0587 81.2857 10.25C81.2857 9.69315 81.5965 9.20891 82.0542 8.96129Z" fill="#D5E3FF"/>
<path d="M72.7381 2.26491C73.139 2.47999 73.5361 2.70112 73.9295 2.92816C73.4307 2.91652 72.9936 2.65548 72.7381 2.26491Z" fill="#D5E3FF"/>
<path d="M30.0705 2.92816C30.4639 2.70112 30.861 2.47999 31.2619 2.26491C31.0064 2.65548 30.5693 2.91652 30.0705 2.92816Z" fill="#D5E3FF"/>
<path d="M19.9613 10.9458C20.6016 10.2635 21.2635 9.60162 21.9458 8.96129C22.4035 9.20891 22.7143 9.69315 22.7143 10.25C22.7143 11.0587 22.0587 11.7143 21.25 11.7143C20.6932 11.7143 20.2089 11.4035 19.9613 10.9458Z" fill="#D5E3FF"/>
<path d="M13.2649 20.2619C13.48 19.861 13.7011 19.4639 13.9282 19.0705C13.9165 19.5693 13.6555 20.0064 13.2649 20.2619Z" fill="#D5E3FF"/>
<path d="M90.7351 61.7381C90.52 62.139 90.2989 62.5361 90.0718 62.9295C90.0835 62.4307 90.3445 61.9936 90.7351 61.7381Z" fill="#D5E3FF"/>
<path d="M84.0387 71.0542C83.7911 70.5965 83.3068 70.2857 82.75 70.2857C81.9413 70.2857 81.2857 70.9413 81.2857 71.75C81.2857 72.3068 81.5965 72.7911 82.0542 73.0387C82.7365 72.3984 83.3984 71.7365 84.0387 71.0542Z" fill="#D5E3FF"/>
<path d="M73.9295 79.0718C73.4307 79.0835 72.9936 79.3445 72.7381 79.7351C73.139 79.52 73.5361 79.2989 73.9295 79.0718Z" fill="#D5E3FF"/>
<path d="M31.2619 79.7351C31.0064 79.3445 30.5693 79.0835 30.0705 79.0718C30.4639 79.2989 30.861 79.52 31.2619 79.7351Z" fill="#D5E3FF"/>
<path d="M21.9458 73.0387C22.4035 72.7911 22.7143 72.3068 22.7143 71.75C22.7143 70.9413 22.0587 70.2857 21.25 70.2857C20.6932 70.2857 20.2089 70.5965 19.9613 71.0542C20.6016 71.7365 21.2635 72.3984 21.9458 73.0387Z" fill="#D5E3FF"/>
<path d="M13.9282 62.9295C13.9165 62.4307 13.6555 61.9936 13.2649 61.7381C13.48 62.139 13.7011 62.5361 13.9282 62.9295Z" fill="#D5E3FF"/>
<path d="M40.2857 1.46429C40.2857 2.27299 39.6301 2.92857 38.8214 2.92857C38.0127 2.92857 37.3571 2.27299 37.3571 1.46429C37.3571 0.655583 38.0127 0 38.8214 0C39.6301 0 40.2857 0.655583 40.2857 1.46429Z" fill="#D5E3FF"/>
<path d="M49.0714 1.46429C49.0714 2.27299 48.4158 2.92857 47.6071 2.92857C46.7984 2.92857 46.1429 2.27299 46.1429 1.46429C46.1429 0.655583 46.7984 0 47.6071 0C48.4158 0 49.0714 0.655583 49.0714 1.46429Z" fill="#D5E3FF"/>
<path d="M57.8571 1.46429C57.8571 2.27299 57.2016 2.92857 56.3929 2.92857C55.5842 2.92857 54.9286 2.27299 54.9286 1.46429C54.9286 0.655583 55.5842 0 56.3929 0C57.2016 0 57.8571 0.655583 57.8571 1.46429Z" fill="#D5E3FF"/>
<path d="M66.6429 1.46429C66.6429 2.27299 65.9873 2.92857 65.1786 2.92857C64.3699 2.92857 63.7143 2.27299 63.7143 1.46429C63.7143 0.655583 64.3699 0 65.1786 0C65.9873 0 66.6429 0.655583 66.6429 1.46429Z" fill="#D5E3FF"/>
<path d="M31.5 10.25C31.5 11.0587 30.8444 11.7143 30.0357 11.7143C29.227 11.7143 28.5714 11.0587 28.5714 10.25C28.5714 9.4413 29.227 8.78571 30.0357 8.78571C30.8444 8.78571 31.5 9.4413 31.5 10.25Z" fill="#D5E3FF"/>
<path d="M40.2857 10.25C40.2857 11.0587 39.6301 11.7143 38.8214 11.7143C38.0127 11.7143 37.3571 11.0587 37.3571 10.25C37.3571 9.4413 38.0127 8.78571 38.8214 8.78571C39.6301 8.78571 40.2857 9.4413 40.2857 10.25Z" fill="#D5E3FF"/>
<path d="M49.0714 10.25C49.0714 11.0587 48.4158 11.7143 47.6071 11.7143C46.7984 11.7143 46.1429 11.0587 46.1429 10.25C46.1429 9.4413 46.7984 8.78571 47.6071 8.78571C48.4158 8.78571 49.0714 9.4413 49.0714 10.25Z" fill="#D5E3FF"/>
<path d="M57.8571 10.25C57.8571 11.0587 57.2016 11.7143 56.3929 11.7143C55.5842 11.7143 54.9286 11.0587 54.9286 10.25C54.9286 9.4413 55.5842 8.78571 56.3929 8.78571C57.2016 8.78571 57.8571 9.4413 57.8571 10.25Z" fill="#D5E3FF"/>
<path d="M66.6429 10.25C66.6429 11.0587 65.9873 11.7143 65.1786 11.7143C64.3699 11.7143 63.7143 11.0587 63.7143 10.25C63.7143 9.4413 64.3699 8.78571 65.1786 8.78571C65.9873 8.78571 66.6429 9.4413 66.6429 10.25Z" fill="#D5E3FF"/>
<path d="M75.4286 10.25C75.4286 11.0587 74.773 11.7143 73.9643 11.7143C73.1556 11.7143 72.5 11.0587 72.5 10.25C72.5 9.4413 73.1556 8.78571 73.9643 8.78571C74.773 8.78571 75.4286 9.4413 75.4286 10.25Z" fill="#D5E3FF"/>
<path d="M22.7143 19.0357C22.7143 19.8444 22.0587 20.5 21.25 20.5C20.4413 20.5 19.7857 19.8444 19.7857 19.0357C19.7857 18.227 20.4413 17.5714 21.25 17.5714C22.0587 17.5714 22.7143 18.227 22.7143 19.0357Z" fill="#D5E3FF"/>
<path d="M31.5 19.0357C31.5 19.8444 30.8444 20.5 30.0357 20.5C29.227 20.5 28.5714 19.8444 28.5714 19.0357C28.5714 18.227 29.227 17.5714 30.0357 17.5714C30.8444 17.5714 31.5 18.227 31.5 19.0357Z" fill="#D5E3FF"/>
<path d="M40.2857 19.0357C40.2857 19.8444 39.6301 20.5 38.8214 20.5C38.0127 20.5 37.3571 19.8444 37.3571 19.0357C37.3571 18.227 38.0127 17.5714 38.8214 17.5714C39.6301 17.5714 40.2857 18.227 40.2857 19.0357Z" fill="#D5E3FF"/>
<path d="M49.0714 19.0357C49.0714 19.8444 48.4158 20.5 47.6071 20.5C46.7984 20.5 46.1429 19.8444 46.1429 19.0357C46.1429 18.227 46.7984 17.5714 47.6071 17.5714C48.4158 17.5714 49.0714 18.227 49.0714 19.0357Z" fill="#D5E3FF"/>
<path d="M57.8571 19.0357C57.8571 19.8444 57.2016 20.5 56.3929 20.5C55.5842 20.5 54.9286 19.8444 54.9286 19.0357C54.9286 18.227 55.5842 17.5714 56.3929 17.5714C57.2016 17.5714 57.8571 18.227 57.8571 19.0357Z" fill="#D5E3FF"/>
<path d="M66.6429 19.0357C66.6429 19.8444 65.9873 20.5 65.1786 20.5C64.3699 20.5 63.7143 19.8444 63.7143 19.0357C63.7143 18.227 64.3699 17.5714 65.1786 17.5714C65.9873 17.5714 66.6429 18.227 66.6429 19.0357Z" fill="#D5E3FF"/>
<path d="M75.4286 19.0357C75.4286 19.8444 74.773 20.5 73.9643 20.5C73.1556 20.5 72.5 19.8444 72.5 19.0357C72.5 18.227 73.1556 17.5714 73.9643 17.5714C74.773 17.5714 75.4286 18.227 75.4286 19.0357Z" fill="#D5E3FF"/>
<path d="M84.2143 19.0357C84.2143 19.8444 83.5587 20.5 82.75 20.5C81.9413 20.5 81.2857 19.8444 81.2857 19.0357C81.2857 18.227 81.9413 17.5714 82.75 17.5714C83.5587 17.5714 84.2143 18.227 84.2143 19.0357Z" fill="#D5E3FF"/>
<path d="M13.9286 27.8214C13.9286 28.6301 13.273 29.2857 12.4643 29.2857C11.6556 29.2857 11 28.6301 11 27.8214C11 27.0127 11.6556 26.3571 12.4643 26.3571C13.273 26.3571 13.9286 27.0127 13.9286 27.8214Z" fill="#D5E3FF"/>
<path d="M22.7143 27.8214C22.7143 28.6301 22.0587 29.2857 21.25 29.2857C20.4413 29.2857 19.7857 28.6301 19.7857 27.8214C19.7857 27.0127 20.4413 26.3571 21.25 26.3571C22.0587 26.3571 22.7143 27.0127 22.7143 27.8214Z" fill="#D5E3FF"/>
<path d="M31.5 27.8214C31.5 28.6301 30.8444 29.2857 30.0357 29.2857C29.227 29.2857 28.5714 28.6301 28.5714 27.8214C28.5714 27.0127 29.227 26.3571 30.0357 26.3571C30.8444 26.3571 31.5 27.0127 31.5 27.8214Z" fill="#D5E3FF"/>
<path d="M40.2857 27.8214C40.2857 28.6301 39.6301 29.2857 38.8214 29.2857C38.0127 29.2857 37.3571 28.6301 37.3571 27.8214C37.3571 27.0127 38.0127 26.3571 38.8214 26.3571C39.6301 26.3571 40.2857 27.0127 40.2857 27.8214Z" fill="#D5E3FF"/>
<path d="M49.0714 27.8214C49.0714 28.6301 48.4158 29.2857 47.6071 29.2857C46.7984 29.2857 46.1429 28.6301 46.1429 27.8214C46.1429 27.0127 46.7984 26.3571 47.6071 26.3571C48.4158 26.3571 49.0714 27.0127 49.0714 27.8214Z" fill="#D5E3FF"/>
<path d="M57.8571 27.8214C57.8571 28.6301 57.2016 29.2857 56.3929 29.2857C55.5842 29.2857 54.9286 28.6301 54.9286 27.8214C54.9286 27.0127 55.5842 26.3571 56.3929 26.3571C57.2016 26.3571 57.8571 27.0127 57.8571 27.8214Z" fill="#D5E3FF"/>
<path d="M66.6429 27.8214C66.6429 28.6301 65.9873 29.2857 65.1786 29.2857C64.3699 29.2857 63.7143 28.6301 63.7143 27.8214C63.7143 27.0127 64.3699 26.3571 65.1786 26.3571C65.9873 26.3571 66.6429 27.0127 66.6429 27.8214Z" fill="#D5E3FF"/>
<path d="M75.4286 27.8214C75.4286 28.6301 74.773 29.2857 73.9643 29.2857C73.1556 29.2857 72.5 28.6301 72.5 27.8214C72.5 27.0127 73.1556 26.3571 73.9643 26.3571C74.773 26.3571 75.4286 27.0127 75.4286 27.8214Z" fill="#D5E3FF"/>
<path d="M84.2143 27.8214C84.2143 28.6301 83.5587 29.2857 82.75 29.2857C81.9413 29.2857 81.2857 28.6301 81.2857 27.8214C81.2857 27.0127 81.9413 26.3571 82.75 26.3571C83.5587 26.3571 84.2143 27.0127 84.2143 27.8214Z" fill="#D5E3FF"/>
<path d="M93 27.8214C93 28.6301 92.3444 29.2857 91.5357 29.2857C90.727 29.2857 90.0714 28.6301 90.0714 27.8214C90.0714 27.0127 90.727 26.3571 91.5357 26.3571C92.3444 26.3571 93 27.0127 93 27.8214Z" fill="#D5E3FF"/>
<path d="M13.9286 36.6071C13.9286 37.4158 13.273 38.0714 12.4643 38.0714C11.6556 38.0714 11 37.4158 11 36.6071C11 35.7984 11.6556 35.1429 12.4643 35.1429C13.273 35.1429 13.9286 35.7984 13.9286 36.6071Z" fill="#D5E3FF"/>
<path d="M22.7143 36.6071C22.7143 37.4158 22.0587 38.0714 21.25 38.0714C20.4413 38.0714 19.7857 37.4158 19.7857 36.6071C19.7857 35.7984 20.4413 35.1429 21.25 35.1429C22.0587 35.1429 22.7143 35.7984 22.7143 36.6071Z" fill="#D5E3FF"/>
<path d="M31.5 36.6071C31.5 37.4158 30.8444 38.0714 30.0357 38.0714C29.227 38.0714 28.5714 37.4158 28.5714 36.6071C28.5714 35.7984 29.227 35.1429 30.0357 35.1429C30.8444 35.1429 31.5 35.7984 31.5 36.6071Z" fill="#D5E3FF"/>
<path d="M40.2857 36.6071C40.2857 37.4158 39.6301 38.0714 38.8214 38.0714C38.0127 38.0714 37.3571 37.4158 37.3571 36.6071C37.3571 35.7984 38.0127 35.1429 38.8214 35.1429C39.6301 35.1429 40.2857 35.7984 40.2857 36.6071Z" fill="#D5E3FF"/>
<path d="M49.0714 36.6071C49.0714 37.4158 48.4158 38.0714 47.6071 38.0714C46.7984 38.0714 46.1429 37.4158 46.1429 36.6071C46.1429 35.7984 46.7984 35.1429 47.6071 35.1429C48.4158 35.1429 49.0714 35.7984 49.0714 36.6071Z" fill="#D5E3FF"/>
<path d="M57.8571 36.6071C57.8571 37.4158 57.2016 38.0714 56.3929 38.0714C55.5842 38.0714 54.9286 37.4158 54.9286 36.6071C54.9286 35.7984 55.5842 35.1429 56.3929 35.1429C57.2016 35.1429 57.8571 35.7984 57.8571 36.6071Z" fill="#D5E3FF"/>
<path d="M66.6429 36.6071C66.6429 37.4158 65.9873 38.0714 65.1786 38.0714C64.3699 38.0714 63.7143 37.4158 63.7143 36.6071C63.7143 35.7984 64.3699 35.1429 65.1786 35.1429C65.9873 35.1429 66.6429 35.7984 66.6429 36.6071Z" fill="#D5E3FF"/>
<path d="M75.4286 36.6071C75.4286 37.4158 74.773 38.0714 73.9643 38.0714C73.1556 38.0714 72.5 37.4158 72.5 36.6071C72.5 35.7984 73.1556 35.1429 73.9643 35.1429C74.773 35.1429 75.4286 35.7984 75.4286 36.6071Z" fill="#D5E3FF"/>
<path d="M84.2143 36.6071C84.2143 37.4158 83.5587 38.0714 82.75 38.0714C81.9413 38.0714 81.2857 37.4158 81.2857 36.6071C81.2857 35.7984 81.9413 35.1429 82.75 35.1429C83.5587 35.1429 84.2143 35.7984 84.2143 36.6071Z" fill="#D5E3FF"/>
<path d="M93 36.6071C93 37.4158 92.3444 38.0714 91.5357 38.0714C90.727 38.0714 90.0714 37.4158 90.0714 36.6071C90.0714 35.7984 90.727 35.1429 91.5357 35.1429C92.3444 35.1429 93 35.7984 93 36.6071Z" fill="#D5E3FF"/>
<path d="M13.9286 45.3929C13.9286 46.2016 13.273 46.8571 12.4643 46.8571C11.6556 46.8571 11 46.2016 11 45.3929C11 44.5842 11.6556 43.9286 12.4643 43.9286C13.273 43.9286 13.9286 44.5842 13.9286 45.3929Z" fill="#D5E3FF"/>
<path d="M22.7143 45.3929C22.7143 46.2016 22.0587 46.8571 21.25 46.8571C20.4413 46.8571 19.7857 46.2016 19.7857 45.3929C19.7857 44.5842 20.4413 43.9286 21.25 43.9286C22.0587 43.9286 22.7143 44.5842 22.7143 45.3929Z" fill="#D5E3FF"/>
<path d="M31.5 45.3929C31.5 46.2016 30.8444 46.8571 30.0357 46.8571C29.227 46.8571 28.5714 46.2016 28.5714 45.3929C28.5714 44.5842 29.227 43.9286 30.0357 43.9286C30.8444 43.9286 31.5 44.5842 31.5 45.3929Z" fill="#D5E3FF"/>
<path d="M40.2857 45.3929C40.2857 46.2016 39.6301 46.8571 38.8214 46.8571C38.0127 46.8571 37.3571 46.2016 37.3571 45.3929C37.3571 44.5842 38.0127 43.9286 38.8214 43.9286C39.6301 43.9286 40.2857 44.5842 40.2857 45.3929Z" fill="#D5E3FF"/>
<path d="M49.0714 45.3929C49.0714 46.2016 48.4158 46.8571 47.6071 46.8571C46.7984 46.8571 46.1429 46.2016 46.1429 45.3929C46.1429 44.5842 46.7984 43.9286 47.6071 43.9286C48.4158 43.9286 49.0714 44.5842 49.0714 45.3929Z" fill="#D5E3FF"/>
<path d="M57.8571 45.3929C57.8571 46.2016 57.2016 46.8571 56.3929 46.8571C55.5842 46.8571 54.9286 46.2016 54.9286 45.3929C54.9286 44.5842 55.5842 43.9286 56.3929 43.9286C57.2016 43.9286 57.8571 44.5842 57.8571 45.3929Z" fill="#D5E3FF"/>
<path d="M66.6429 45.3929C66.6429 46.2016 65.9873 46.8571 65.1786 46.8571C64.3699 46.8571 63.7143 46.2016 63.7143 45.3929C63.7143 44.5842 64.3699 43.9286 65.1786 43.9286C65.9873 43.9286 66.6429 44.5842 66.6429 45.3929Z" fill="#D5E3FF"/>
<path d="M75.4286 45.3929C75.4286 46.2016 74.773 46.8571 73.9643 46.8571C73.1556 46.8571 72.5 46.2016 72.5 45.3929C72.5 44.5842 73.1556 43.9286 73.9643 43.9286C74.773 43.9286 75.4286 44.5842 75.4286 45.3929Z" fill="#D5E3FF"/>
<path d="M84.2143 45.3929C84.2143 46.2016 83.5587 46.8571 82.75 46.8571C81.9413 46.8571 81.2857 46.2016 81.2857 45.3929C81.2857 44.5842 81.9413 43.9286 82.75 43.9286C83.5587 43.9286 84.2143 44.5842 84.2143 45.3929Z" fill="#D5E3FF"/>
<path d="M93 45.3929C93 46.2016 92.3444 46.8571 91.5357 46.8571C90.727 46.8571 90.0714 46.2016 90.0714 45.3929C90.0714 44.5842 90.727 43.9286 91.5357 43.9286C92.3444 43.9286 93 44.5842 93 45.3929Z" fill="#D5E3FF"/>
<path d="M13.9286 54.1786C13.9286 54.9873 13.273 55.6429 12.4643 55.6429C11.6556 55.6429 11 54.9873 11 54.1786C11 53.3699 11.6556 52.7143 12.4643 52.7143C13.273 52.7143 13.9286 53.3699 13.9286 54.1786Z" fill="#D5E3FF"/>
<path d="M22.7143 54.1786C22.7143 54.9873 22.0587 55.6429 21.25 55.6429C20.4413 55.6429 19.7857 54.9873 19.7857 54.1786C19.7857 53.3699 20.4413 52.7143 21.25 52.7143C22.0587 52.7143 22.7143 53.3699 22.7143 54.1786Z" fill="#D5E3FF"/>
<path d="M31.5 54.1786C31.5 54.9873 30.8444 55.6429 30.0357 55.6429C29.227 55.6429 28.5714 54.9873 28.5714 54.1786C28.5714 53.3699 29.227 52.7143 30.0357 52.7143C30.8444 52.7143 31.5 53.3699 31.5 54.1786Z" fill="#D5E3FF"/>
<path d="M40.2857 54.1786C40.2857 54.9873 39.6301 55.6429 38.8214 55.6429C38.0127 55.6429 37.3571 54.9873 37.3571 54.1786C37.3571 53.3699 38.0127 52.7143 38.8214 52.7143C39.6301 52.7143 40.2857 53.3699 40.2857 54.1786Z" fill="#D5E3FF"/>
<path d="M49.0714 54.1786C49.0714 54.9873 48.4158 55.6429 47.6071 55.6429C46.7984 55.6429 46.1429 54.9873 46.1429 54.1786C46.1429 53.3699 46.7984 52.7143 47.6071 52.7143C48.4158 52.7143 49.0714 53.3699 49.0714 54.1786Z" fill="#D5E3FF"/>
<path d="M57.8571 54.1786C57.8571 54.9873 57.2016 55.6429 56.3929 55.6429C55.5842 55.6429 54.9286 54.9873 54.9286 54.1786C54.9286 53.3699 55.5842 52.7143 56.3929 52.7143C57.2016 52.7143 57.8571 53.3699 57.8571 54.1786Z" fill="#D5E3FF"/>
<path d="M66.6429 54.1786C66.6429 54.9873 65.9873 55.6429 65.1786 55.6429C64.3699 55.6429 63.7143 54.9873 63.7143 54.1786C63.7143 53.3699 64.3699 52.7143 65.1786 52.7143C65.9873 52.7143 66.6429 53.3699 66.6429 54.1786Z" fill="#D5E3FF"/>
<path d="M75.4286 54.1786C75.4286 54.9873 74.773 55.6429 73.9643 55.6429C73.1556 55.6429 72.5 54.9873 72.5 54.1786C72.5 53.3699 73.1556 52.7143 73.9643 52.7143C74.773 52.7143 75.4286 53.3699 75.4286 54.1786Z" fill="#D5E3FF"/>
<path d="M84.2143 54.1786C84.2143 54.9873 83.5587 55.6429 82.75 55.6429C81.9413 55.6429 81.2857 54.9873 81.2857 54.1786C81.2857 53.3699 81.9413 52.7143 82.75 52.7143C83.5587 52.7143 84.2143 53.3699 84.2143 54.1786Z" fill="#D5E3FF"/>
<path d="M93 54.1786C93 54.9873 92.3444 55.6429 91.5357 55.6429C90.727 55.6429 90.0714 54.9873 90.0714 54.1786C90.0714 53.3699 90.727 52.7143 91.5357 52.7143C92.3444 52.7143 93 53.3699 93 54.1786Z" fill="#D5E3FF"/>
<path d="M22.7143 62.9643C22.7143 63.773 22.0587 64.4286 21.25 64.4286C20.4413 64.4286 19.7857 63.773 19.7857 62.9643C19.7857 62.1556 20.4413 61.5 21.25 61.5C22.0587 61.5 22.7143 62.1556 22.7143 62.9643Z" fill="#D5E3FF"/>
<path d="M31.5 62.9643C31.5 63.773 30.8444 64.4286 30.0357 64.4286C29.227 64.4286 28.5714 63.773 28.5714 62.9643C28.5714 62.1556 29.227 61.5 30.0357 61.5C30.8444 61.5 31.5 62.1556 31.5 62.9643Z" fill="#D5E3FF"/>
<path d="M40.2857 62.9643C40.2857 63.773 39.6301 64.4286 38.8214 64.4286C38.0127 64.4286 37.3571 63.773 37.3571 62.9643C37.3571 62.1556 38.0127 61.5 38.8214 61.5C39.6301 61.5 40.2857 62.1556 40.2857 62.9643Z" fill="#D5E3FF"/>
<path d="M49.0714 62.9643C49.0714 63.773 48.4158 64.4286 47.6071 64.4286C46.7984 64.4286 46.1429 63.773 46.1429 62.9643C46.1429 62.1556 46.7984 61.5 47.6071 61.5C48.4158 61.5 49.0714 62.1556 49.0714 62.9643Z" fill="#D5E3FF"/>
<path d="M57.8571 62.9643C57.8571 63.773 57.2016 64.4286 56.3929 64.4286C55.5842 64.4286 54.9286 63.773 54.9286 62.9643C54.9286 62.1556 55.5842 61.5 56.3929 61.5C57.2016 61.5 57.8571 62.1556 57.8571 62.9643Z" fill="#D5E3FF"/>
<path d="M66.6429 62.9643C66.6429 63.773 65.9873 64.4286 65.1786 64.4286C64.3699 64.4286 63.7143 63.773 63.7143 62.9643C63.7143 62.1556 64.3699 61.5 65.1786 61.5C65.9873 61.5 66.6429 62.1556 66.6429 62.9643Z" fill="#D5E3FF"/>
<path d="M75.4286 62.9643C75.4286 63.773 74.773 64.4286 73.9643 64.4286C73.1556 64.4286 72.5 63.773 72.5 62.9643C72.5 62.1556 73.1556 61.5 73.9643 61.5C74.773 61.5 75.4286 62.1556 75.4286 62.9643Z" fill="#D5E3FF"/>
<path d="M84.2143 62.9643C84.2143 63.773 83.5587 64.4286 82.75 64.4286C81.9413 64.4286 81.2857 63.773 81.2857 62.9643C81.2857 62.1556 81.9413 61.5 82.75 61.5C83.5587 61.5 84.2143 62.1556 84.2143 62.9643Z" fill="#D5E3FF"/>
<path d="M31.5 71.75C31.5 72.5587 30.8444 73.2143 30.0357 73.2143C29.227 73.2143 28.5714 72.5587 28.5714 71.75C28.5714 70.9413 29.227 70.2857 30.0357 70.2857C30.8444 70.2857 31.5 70.9413 31.5 71.75Z" fill="#D5E3FF"/>
<path d="M40.2857 71.75C40.2857 72.5587 39.6301 73.2143 38.8214 73.2143C38.0127 73.2143 37.3571 72.5587 37.3571 71.75C37.3571 70.9413 38.0127 70.2857 38.8214 70.2857C39.6301 70.2857 40.2857 70.9413 40.2857 71.75Z" fill="#D5E3FF"/>
<path d="M49.0714 71.75C49.0714 72.5587 48.4158 73.2143 47.6071 73.2143C46.7984 73.2143 46.1429 72.5587 46.1429 71.75C46.1429 70.9413 46.7984 70.2857 47.6071 70.2857C48.4158 70.2857 49.0714 70.9413 49.0714 71.75Z" fill="#D5E3FF"/>
<path d="M57.8571 71.75C57.8571 72.5587 57.2016 73.2143 56.3929 73.2143C55.5842 73.2143 54.9286 72.5587 54.9286 71.75C54.9286 70.9413 55.5842 70.2857 56.3929 70.2857C57.2016 70.2857 57.8571 70.9413 57.8571 71.75Z" fill="#D5E3FF"/>
<path d="M66.6429 71.75C66.6429 72.5587 65.9873 73.2143 65.1786 73.2143C64.3699 73.2143 63.7143 72.5587 63.7143 71.75C63.7143 70.9413 64.3699 70.2857 65.1786 70.2857C65.9873 70.2857 66.6429 70.9413 66.6429 71.75Z" fill="#D5E3FF"/>
<path d="M75.4286 71.75C75.4286 72.5587 74.773 73.2143 73.9643 73.2143C73.1556 73.2143 72.5 72.5587 72.5 71.75C72.5 70.9413 73.1556 70.2857 73.9643 70.2857C74.773 70.2857 75.4286 70.9413 75.4286 71.75Z" fill="#D5E3FF"/>
<path d="M40.2857 80.5357C40.2857 81.3444 39.6301 82 38.8214 82C38.0127 82 37.3571 81.3444 37.3571 80.5357C37.3571 79.727 38.0127 79.0714 38.8214 79.0714C39.6301 79.0714 40.2857 79.727 40.2857 80.5357Z" fill="#D5E3FF"/>
<path d="M49.0714 80.5357C49.0714 81.3444 48.4158 82 47.6071 82C46.7984 82 46.1429 81.3444 46.1429 80.5357C46.1429 79.727 46.7984 79.0714 47.6071 79.0714C48.4158 79.0714 49.0714 79.727 49.0714 80.5357Z" fill="#D5E3FF"/>
<path d="M57.8571 80.5357C57.8571 81.3444 57.2016 82 56.3929 82C55.5842 82 54.9286 81.3444 54.9286 80.5357C54.9286 79.727 55.5842 79.0714 56.3929 79.0714C57.2016 79.0714 57.8571 79.727 57.8571 80.5357Z" fill="#D5E3FF"/>
<path d="M66.6429 80.5357C66.6429 81.3444 65.9873 82 65.1786 82C64.3699 82 63.7143 81.3444 63.7143 80.5357C63.7143 79.727 64.3699 79.0714 65.1786 79.0714C65.9873 79.0714 66.6429 79.727 66.6429 80.5357Z" fill="#D5E3FF"/>
<path d="M20.4998 11.1819C19.3816 11.1819 18.6362 11.9274 18.6362 13.0455V57.7728C18.6362 58.891 19.3818 59.6364 20.4998 59.6364C21.6179 59.6364 22.3634 58.8908 22.3634 57.7728V13.0456C22.3634 11.9274 21.618 11.1819 20.4998 11.1819Z" fill="#437FFF"/>
<path d="M65.2271 70.8181H20.4998C19.3816 70.8181 18.6362 71.5636 18.6362 72.6817C18.6362 73.7997 19.3818 74.5453 20.4998 74.5453H65.2271C66.3453 74.5453 67.0907 73.7997 67.0907 72.6817C67.0907 71.5636 66.3453 70.8181 65.2271 70.8181Z" fill="#437FFF"/>
<path d="M54.0449 29.8181H35.4085C34.2903 29.8181 33.5449 30.5636 33.5449 31.6817C33.5449 32.7997 34.2904 33.5453 35.4085 33.5453H54.0449C55.1631 33.5453 55.9085 32.7997 55.9085 31.6817C55.9085 30.5636 55.163 29.8181 54.0449 29.8181Z" fill="#437FFF"/>
<path d="M50.3178 37.2727H39.136C38.0178 37.2727 37.2725 38.0182 37.2725 39.1363C37.2725 40.2543 38.0178 41 39.136 41H50.3178C51.436 41 52.1814 40.2545 52.1814 39.1364C52.1814 38.0184 51.436 37.2727 50.3178 37.2727Z" fill="#437FFF"/>
<path d="M20.4999 67.0909H65.2272C68.3954 67.0909 70.8181 64.6682 70.8181 61.5V7.45447C70.8181 4.28626 68.3954 1.86358 65.2272 1.86358H63.3636C63.3634 0.745527 62.6181 0 61.4999 0H46.5907C45.4725 0 44.7272 0.745527 44.7272 1.86358V16.7727C44.7272 17.3318 45.0999 18.0772 45.659 18.45C46.2181 18.8228 46.9634 18.8227 47.5225 18.45L54.0452 15.0955L60.7543 18.45C61.3134 18.8227 62.0588 18.6364 62.6179 18.45C62.9906 18.0773 63.3634 17.3318 63.3634 16.7727V11.1818C63.3634 10.0636 62.6179 9.31821 61.4999 9.31821C60.3818 9.31821 59.6363 10.0637 59.6363 11.1818V13.7909L54.7907 11.3682C54.2316 11.1818 53.6725 11.1818 53.1134 11.3682L48.4543 13.7909V3.72732H59.6361C59.6361 4.84553 60.3816 5.59089 61.4997 5.59089H65.227C66.3452 5.59089 67.0906 6.33642 67.0906 7.45447V61.5C67.0906 62.6182 66.3451 63.3636 65.227 63.3636H20.4999C18.4499 63.3636 16.3999 64.1091 14.909 65.2272V14.9091C14.909 9.6909 19.009 5.59089 24.2272 5.59089H39.1363C40.2545 5.59089 40.9999 4.84537 40.9999 3.72732C40.9999 2.60927 40.2543 1.86374 39.1363 1.86374H24.2272C16.959 1.86374 11.1816 7.64106 11.1816 14.9093V72.6819C11.1816 77.9 15.2816 82 20.4999 82H68.9543C70.0725 82 70.8179 81.2545 70.8179 80.1364C70.8179 79.0184 70.0724 78.2728 68.9543 78.2728H20.4999C17.3316 78.2728 14.909 75.8502 14.909 72.6819C14.909 69.5136 17.3316 67.0909 20.4999 67.0909Z" fill="#437FFF"/>
</svg>
