<svg width="172" height="29" viewBox="0 0 172 29" fill="none" xmlns="http://www.w3.org/2000/svg">
<g clip-path="url(#clip0_19_758)">
<path d="M7.34502 1.1702H30.6681L28.6361 8.66284H14.2959L13.5519 11.4358H26.9151L25.1552 18.03H11.792L10.9703 20.9971H25.5049L23.5118 28.4898H0L7.34502 1.1702Z" fill="#162953"/>
<path d="M28.0923 20.6866C28.0923 12.9222 33.0556 6.67738 39.3069 6.67738C42.3548 6.67738 44.3479 8.04169 45.5582 9.91624L48.2175 0H57.0893L49.4722 28.4898H40.606L41.1945 26.3046C39.6733 27.8631 37.3638 29 35.0986 29C31.3068 29 28.1034 25.9552 28.1034 20.6866H28.0923ZM43.9537 16.9763C43.9537 15.1406 42.7435 13.9315 41.1001 13.9315C38.6795 13.9315 36.9196 16.2331 36.9196 18.7344C36.9196 20.5701 38.1299 21.7791 39.7733 21.7791C42.1938 21.7791 43.9537 19.4775 43.9537 16.9763Z" fill="#162953"/>
<path d="M54.1187 22.4835C54.1187 21.3909 54.2741 20.1819 54.6294 18.8952L57.7551 7.18761H66.6213L63.7677 17.8026C63.6122 18.3517 63.5345 18.9728 63.5345 19.4054C63.5345 20.5368 64.123 21.28 65.411 21.28C67.1709 21.28 68.1092 20.1098 68.731 17.8082L71.5846 7.19315H80.4563L74.7547 28.5009H65.8884L66.5935 25.8443C65.1889 27.5636 62.8794 29.0055 60.2256 29.0055C56.3172 29.0055 54.1298 26.471 54.1298 22.489L54.1187 22.4835Z" fill="#162953"/>
<path d="M84.7093 1.1702H93.2646L99.477 14.2033L102.991 1.1702H112.057L104.712 28.4898H96.5846L90.1001 14.9076L86.4303 28.4898H77.3643L84.7093 1.1702Z" fill="#437FFF"/>
<path d="M120.89 22.7552C122.334 22.7552 123.705 22.1673 125.187 21.036L129.29 25.5227C126.87 27.669 123.899 28.9945 120.146 28.9945C113.662 28.9945 109.676 25.2065 109.676 19.6273C109.676 13.1495 114.522 6.67183 122.645 6.67183C129.679 6.67183 132.022 11.4358 132.022 15.9225C132.022 17.3257 131.789 18.6955 131.394 19.9046H117.681C117.798 21.6238 118.892 22.7552 120.885 22.7552H120.89ZM124.249 16.0057C124.366 15.6952 124.405 15.379 124.405 15.0685C124.405 13.8983 123.544 12.8057 122.101 12.8057C120.774 12.8057 119.053 13.6265 118.231 16.0057H124.249Z" fill="#437FFF"/>
<path d="M130.389 25.445L134.298 20.3704C136.213 21.89 139.533 23.2599 141.954 23.2599C142.853 23.2599 143.203 22.9105 143.203 22.5167C143.203 21.8124 142.536 21.463 139.883 20.4869C136.446 19.239 134.059 17.6751 134.059 14.3198C134.059 10.066 137.651 6.67183 144.063 6.67183C148.36 6.67183 151.997 7.9585 154.145 9.60011L150.237 14.6747C148.593 13.5433 145.862 12.4119 143.752 12.4119C142.775 12.4119 142.348 12.6837 142.348 13.1163C142.348 13.7041 142.814 13.9371 145.435 14.8744C148.832 16.0834 151.492 17.5697 151.492 21.3133C151.492 24.8627 148.993 29 141.804 29C136.957 29 133.015 27.4416 130.395 25.4506L130.389 25.445Z" fill="#437FFF"/>
<path d="M154.301 23.1434C154.301 22.245 154.456 21.2689 154.729 20.1763L156.372 14.0092H153.874L155.711 7.17651H158.209L159.653 1.83018H168.519L167.076 7.17651H172L170.162 14.0092H165.238L164.028 18.5735C163.833 19.2779 163.756 19.7826 163.756 20.2151C163.756 21.1136 164.305 21.5795 165.555 21.5795C166.26 21.5795 166.881 21.463 168.131 21.1136L166.215 28.3345C164.694 28.7227 163.206 28.9612 161.724 28.9612C156.722 28.9612 154.301 27.0478 154.301 23.1434Z" fill="#437FFF"/>
</g>
<defs>
<clipPath id="clip0_19_758">
<rect width="172" height="29" fill="white"/>
</clipPath>
</defs>
</svg>
