<svg width="342" height="376" viewBox="0 0 342 376" fill="none" xmlns="http://www.w3.org/2000/svg">
<path d="M11.0323 5.52941C11.0323 8.58322 8.5626 11.0588 5.51613 11.0588C2.46966 11.0588 0 8.58322 0 5.52941C0 2.4756 2.46966 0 5.51613 0C8.5626 0 11.0323 2.4756 11.0323 5.52941Z" fill="#E2EBFF"/>
<path d="M44.129 5.52941C44.129 8.58322 41.6594 11.0588 38.6129 11.0588C35.5664 11.0588 33.0968 8.58322 33.0968 5.52941C33.0968 2.4756 35.5664 0 38.6129 0C41.6594 0 44.129 2.4756 44.129 5.52941Z" fill="#E2EBFF"/>
<path d="M77.2258 5.52941C77.2258 8.58322 74.7561 11.0588 71.7097 11.0588C68.6632 11.0588 66.1936 8.58322 66.1936 5.52941C66.1936 2.4756 68.6632 0 71.7097 0C74.7561 0 77.2258 2.4756 77.2258 5.52941Z" fill="#E2EBFF"/>
<path d="M110.323 5.52941C110.323 8.58322 107.853 11.0588 104.806 11.0588C101.76 11.0588 99.2903 8.58322 99.2903 5.52941C99.2903 2.4756 101.76 0 104.806 0C107.853 0 110.323 2.4756 110.323 5.52941Z" fill="#E2EBFF"/>
<path d="M143.419 5.52941C143.419 8.58322 140.95 11.0588 137.903 11.0588C134.857 11.0588 132.387 8.58322 132.387 5.52941C132.387 2.4756 134.857 0 137.903 0C140.95 0 143.419 2.4756 143.419 5.52941Z" fill="#E2EBFF"/>
<path d="M176.516 5.52941C176.516 8.58322 174.046 11.0588 171 11.0588C167.954 11.0588 165.484 8.58322 165.484 5.52941C165.484 2.4756 167.954 0 171 0C174.046 0 176.516 2.4756 176.516 5.52941Z" fill="#E2EBFF"/>
<path d="M209.613 5.52941C209.613 8.58322 207.143 11.0588 204.097 11.0588C201.05 11.0588 198.581 8.58322 198.581 5.52941C198.581 2.4756 201.05 0 204.097 0C207.143 0 209.613 2.4756 209.613 5.52941Z" fill="#E2EBFF"/>
<path d="M242.71 5.52941C242.71 8.58322 240.24 11.0588 237.194 11.0588C234.147 11.0588 231.677 8.58322 231.677 5.52941C231.677 2.4756 234.147 0 237.194 0C240.24 0 242.71 2.4756 242.71 5.52941Z" fill="#E2EBFF"/>
<path d="M275.806 5.52941C275.806 8.58322 273.337 11.0588 270.29 11.0588C267.244 11.0588 264.774 8.58322 264.774 5.52941C264.774 2.4756 267.244 0 270.29 0C273.337 0 275.806 2.4756 275.806 5.52941Z" fill="#E2EBFF"/>
<path d="M308.903 5.52941C308.903 8.58322 306.434 11.0588 303.387 11.0588C300.341 11.0588 297.871 8.58322 297.871 5.52941C297.871 2.4756 300.341 0 303.387 0C306.434 0 308.903 2.4756 308.903 5.52941Z" fill="#E2EBFF"/>
<path d="M342 5.52941C342 8.58322 339.53 11.0588 336.484 11.0588C333.437 11.0588 330.968 8.58322 330.968 5.52941C330.968 2.4756 333.437 0 336.484 0C339.53 0 342 2.4756 342 5.52941Z" fill="#E2EBFF"/>
<path d="M11.0323 38.7059C11.0323 41.7597 8.5626 44.2353 5.51613 44.2353C2.46966 44.2353 0 41.7597 0 38.7059C0 35.6521 2.46966 33.1765 5.51613 33.1765C8.5626 33.1765 11.0323 35.6521 11.0323 38.7059Z" fill="#E2EBFF"/>
<path d="M44.129 38.7059C44.129 41.7597 41.6594 44.2353 38.6129 44.2353C35.5664 44.2353 33.0968 41.7597 33.0968 38.7059C33.0968 35.6521 35.5664 33.1765 38.6129 33.1765C41.6594 33.1765 44.129 35.6521 44.129 38.7059Z" fill="#E2EBFF"/>
<path d="M77.2258 38.7059C77.2258 41.7597 74.7561 44.2353 71.7097 44.2353C68.6632 44.2353 66.1936 41.7597 66.1936 38.7059C66.1936 35.6521 68.6632 33.1765 71.7097 33.1765C74.7561 33.1765 77.2258 35.6521 77.2258 38.7059Z" fill="#E2EBFF"/>
<path d="M110.323 38.7059C110.323 41.7597 107.853 44.2353 104.806 44.2353C101.76 44.2353 99.2903 41.7597 99.2903 38.7059C99.2903 35.6521 101.76 33.1765 104.806 33.1765C107.853 33.1765 110.323 35.6521 110.323 38.7059Z" fill="#E2EBFF"/>
<path d="M143.419 38.7059C143.419 41.7597 140.95 44.2353 137.903 44.2353C134.857 44.2353 132.387 41.7597 132.387 38.7059C132.387 35.6521 134.857 33.1765 137.903 33.1765C140.95 33.1765 143.419 35.6521 143.419 38.7059Z" fill="#E2EBFF"/>
<path d="M176.516 38.7059C176.516 41.7597 174.046 44.2353 171 44.2353C167.954 44.2353 165.484 41.7597 165.484 38.7059C165.484 35.6521 167.954 33.1765 171 33.1765C174.046 33.1765 176.516 35.6521 176.516 38.7059Z" fill="#E2EBFF"/>
<path d="M209.613 38.7059C209.613 41.7597 207.143 44.2353 204.097 44.2353C201.05 44.2353 198.581 41.7597 198.581 38.7059C198.581 35.6521 201.05 33.1765 204.097 33.1765C207.143 33.1765 209.613 35.6521 209.613 38.7059Z" fill="#E2EBFF"/>
<path d="M242.71 38.7059C242.71 41.7597 240.24 44.2353 237.194 44.2353C234.147 44.2353 231.677 41.7597 231.677 38.7059C231.677 35.6521 234.147 33.1765 237.194 33.1765C240.24 33.1765 242.71 35.6521 242.71 38.7059Z" fill="#E2EBFF"/>
<path d="M275.806 38.7059C275.806 41.7597 273.337 44.2353 270.29 44.2353C267.244 44.2353 264.774 41.7597 264.774 38.7059C264.774 35.6521 267.244 33.1765 270.29 33.1765C273.337 33.1765 275.806 35.6521 275.806 38.7059Z" fill="#E2EBFF"/>
<path d="M308.903 38.7059C308.903 41.7597 306.434 44.2353 303.387 44.2353C300.341 44.2353 297.871 41.7597 297.871 38.7059C297.871 35.6521 300.341 33.1765 303.387 33.1765C306.434 33.1765 308.903 35.6521 308.903 38.7059Z" fill="#E2EBFF"/>
<path d="M342 38.7059C342 41.7597 339.53 44.2353 336.484 44.2353C333.437 44.2353 330.968 41.7597 330.968 38.7059C330.968 35.6521 333.437 33.1765 336.484 33.1765C339.53 33.1765 342 35.6521 342 38.7059Z" fill="#E2EBFF"/>
<path d="M11.0323 71.8824C11.0323 74.9362 8.5626 77.4118 5.51613 77.4118C2.46966 77.4118 0 74.9362 0 71.8824C0 68.8285 2.46966 66.3529 5.51613 66.3529C8.5626 66.3529 11.0323 68.8285 11.0323 71.8824Z" fill="#E2EBFF"/>
<path d="M44.129 71.8824C44.129 74.9362 41.6594 77.4118 38.6129 77.4118C35.5664 77.4118 33.0968 74.9362 33.0968 71.8824C33.0968 68.8285 35.5664 66.3529 38.6129 66.3529C41.6594 66.3529 44.129 68.8285 44.129 71.8824Z" fill="#E2EBFF"/>
<path d="M77.2258 71.8824C77.2258 74.9362 74.7561 77.4118 71.7097 77.4118C68.6632 77.4118 66.1936 74.9362 66.1936 71.8824C66.1936 68.8285 68.6632 66.3529 71.7097 66.3529C74.7561 66.3529 77.2258 68.8285 77.2258 71.8824Z" fill="#E2EBFF"/>
<path d="M110.323 71.8824C110.323 74.9362 107.853 77.4118 104.806 77.4118C101.76 77.4118 99.2903 74.9362 99.2903 71.8824C99.2903 68.8285 101.76 66.3529 104.806 66.3529C107.853 66.3529 110.323 68.8285 110.323 71.8824Z" fill="#E2EBFF"/>
<path d="M143.419 71.8824C143.419 74.9362 140.95 77.4118 137.903 77.4118C134.857 77.4118 132.387 74.9362 132.387 71.8824C132.387 68.8285 134.857 66.3529 137.903 66.3529C140.95 66.3529 143.419 68.8285 143.419 71.8824Z" fill="#E2EBFF"/>
<path d="M176.516 71.8824C176.516 74.9362 174.046 77.4118 171 77.4118C167.954 77.4118 165.484 74.9362 165.484 71.8824C165.484 68.8285 167.954 66.3529 171 66.3529C174.046 66.3529 176.516 68.8285 176.516 71.8824Z" fill="#E2EBFF"/>
<path d="M209.613 71.8824C209.613 74.9362 207.143 77.4118 204.097 77.4118C201.05 77.4118 198.581 74.9362 198.581 71.8824C198.581 68.8285 201.05 66.3529 204.097 66.3529C207.143 66.3529 209.613 68.8285 209.613 71.8824Z" fill="#E2EBFF"/>
<path d="M242.71 71.8824C242.71 74.9362 240.24 77.4118 237.194 77.4118C234.147 77.4118 231.677 74.9362 231.677 71.8824C231.677 68.8285 234.147 66.3529 237.194 66.3529C240.24 66.3529 242.71 68.8285 242.71 71.8824Z" fill="#E2EBFF"/>
<path d="M275.806 71.8824C275.806 74.9362 273.337 77.4118 270.29 77.4118C267.244 77.4118 264.774 74.9362 264.774 71.8824C264.774 68.8285 267.244 66.3529 270.29 66.3529C273.337 66.3529 275.806 68.8285 275.806 71.8824Z" fill="#E2EBFF"/>
<path d="M308.903 71.8824C308.903 74.9362 306.434 77.4118 303.387 77.4118C300.341 77.4118 297.871 74.9362 297.871 71.8824C297.871 68.8285 300.341 66.3529 303.387 66.3529C306.434 66.3529 308.903 68.8285 308.903 71.8824Z" fill="#E2EBFF"/>
<path d="M342 71.8824C342 74.9362 339.53 77.4118 336.484 77.4118C333.437 77.4118 330.968 74.9362 330.968 71.8824C330.968 68.8285 333.437 66.3529 336.484 66.3529C339.53 66.3529 342 68.8285 342 71.8824Z" fill="#E2EBFF"/>
<path d="M11.0323 105.059C11.0323 108.113 8.5626 110.588 5.51613 110.588C2.46966 110.588 0 108.113 0 105.059C0 102.005 2.46966 99.5294 5.51613 99.5294C8.5626 99.5294 11.0323 102.005 11.0323 105.059Z" fill="#E2EBFF"/>
<path d="M44.129 105.059C44.129 108.113 41.6594 110.588 38.6129 110.588C35.5664 110.588 33.0968 108.113 33.0968 105.059C33.0968 102.005 35.5664 99.5294 38.6129 99.5294C41.6594 99.5294 44.129 102.005 44.129 105.059Z" fill="#E2EBFF"/>
<path d="M77.2258 105.059C77.2258 108.113 74.7561 110.588 71.7097 110.588C68.6632 110.588 66.1936 108.113 66.1936 105.059C66.1936 102.005 68.6632 99.5294 71.7097 99.5294C74.7561 99.5294 77.2258 102.005 77.2258 105.059Z" fill="#E2EBFF"/>
<path d="M110.323 105.059C110.323 108.113 107.853 110.588 104.806 110.588C101.76 110.588 99.2903 108.113 99.2903 105.059C99.2903 102.005 101.76 99.5294 104.806 99.5294C107.853 99.5294 110.323 102.005 110.323 105.059Z" fill="#E2EBFF"/>
<path d="M143.419 105.059C143.419 108.113 140.95 110.588 137.903 110.588C134.857 110.588 132.387 108.113 132.387 105.059C132.387 102.005 134.857 99.5294 137.903 99.5294C140.95 99.5294 143.419 102.005 143.419 105.059Z" fill="#E2EBFF"/>
<path d="M176.516 105.059C176.516 108.113 174.046 110.588 171 110.588C167.954 110.588 165.484 108.113 165.484 105.059C165.484 102.005 167.954 99.5294 171 99.5294C174.046 99.5294 176.516 102.005 176.516 105.059Z" fill="#E2EBFF"/>
<path d="M209.613 105.059C209.613 108.113 207.143 110.588 204.097 110.588C201.05 110.588 198.581 108.113 198.581 105.059C198.581 102.005 201.05 99.5294 204.097 99.5294C207.143 99.5294 209.613 102.005 209.613 105.059Z" fill="#E2EBFF"/>
<path d="M242.71 105.059C242.71 108.113 240.24 110.588 237.194 110.588C234.147 110.588 231.677 108.113 231.677 105.059C231.677 102.005 234.147 99.5294 237.194 99.5294C240.24 99.5294 242.71 102.005 242.71 105.059Z" fill="#E2EBFF"/>
<path d="M275.806 105.059C275.806 108.113 273.337 110.588 270.29 110.588C267.244 110.588 264.774 108.113 264.774 105.059C264.774 102.005 267.244 99.5294 270.29 99.5294C273.337 99.5294 275.806 102.005 275.806 105.059Z" fill="#E2EBFF"/>
<path d="M308.903 105.059C308.903 108.113 306.434 110.588 303.387 110.588C300.341 110.588 297.871 108.113 297.871 105.059C297.871 102.005 300.341 99.5294 303.387 99.5294C306.434 99.5294 308.903 102.005 308.903 105.059Z" fill="#E2EBFF"/>
<path d="M342 105.059C342 108.113 339.53 110.588 336.484 110.588C333.437 110.588 330.968 108.113 330.968 105.059C330.968 102.005 333.437 99.5294 336.484 99.5294C339.53 99.5294 342 102.005 342 105.059Z" fill="#E2EBFF"/>
<path d="M11.0323 138.235C11.0323 141.289 8.5626 143.765 5.51613 143.765C2.46966 143.765 0 141.289 0 138.235C0 135.181 2.46966 132.706 5.51613 132.706C8.5626 132.706 11.0323 135.181 11.0323 138.235Z" fill="#E2EBFF"/>
<path d="M44.129 138.235C44.129 141.289 41.6594 143.765 38.6129 143.765C35.5664 143.765 33.0968 141.289 33.0968 138.235C33.0968 135.181 35.5664 132.706 38.6129 132.706C41.6594 132.706 44.129 135.181 44.129 138.235Z" fill="#E2EBFF"/>
<path d="M77.2258 138.235C77.2258 141.289 74.7561 143.765 71.7097 143.765C68.6632 143.765 66.1936 141.289 66.1936 138.235C66.1936 135.181 68.6632 132.706 71.7097 132.706C74.7561 132.706 77.2258 135.181 77.2258 138.235Z" fill="#E2EBFF"/>
<path d="M110.323 138.235C110.323 141.289 107.853 143.765 104.806 143.765C101.76 143.765 99.2903 141.289 99.2903 138.235C99.2903 135.181 101.76 132.706 104.806 132.706C107.853 132.706 110.323 135.181 110.323 138.235Z" fill="#E2EBFF"/>
<path d="M143.419 138.235C143.419 141.289 140.95 143.765 137.903 143.765C134.857 143.765 132.387 141.289 132.387 138.235C132.387 135.181 134.857 132.706 137.903 132.706C140.95 132.706 143.419 135.181 143.419 138.235Z" fill="#E2EBFF"/>
<path d="M176.516 138.235C176.516 141.289 174.046 143.765 171 143.765C167.954 143.765 165.484 141.289 165.484 138.235C165.484 135.181 167.954 132.706 171 132.706C174.046 132.706 176.516 135.181 176.516 138.235Z" fill="#E2EBFF"/>
<path d="M209.613 138.235C209.613 141.289 207.143 143.765 204.097 143.765C201.05 143.765 198.581 141.289 198.581 138.235C198.581 135.181 201.05 132.706 204.097 132.706C207.143 132.706 209.613 135.181 209.613 138.235Z" fill="#E2EBFF"/>
<path d="M242.71 138.235C242.71 141.289 240.24 143.765 237.194 143.765C234.147 143.765 231.677 141.289 231.677 138.235C231.677 135.181 234.147 132.706 237.194 132.706C240.24 132.706 242.71 135.181 242.71 138.235Z" fill="#E2EBFF"/>
<path d="M275.806 138.235C275.806 141.289 273.337 143.765 270.29 143.765C267.244 143.765 264.774 141.289 264.774 138.235C264.774 135.181 267.244 132.706 270.29 132.706C273.337 132.706 275.806 135.181 275.806 138.235Z" fill="#E2EBFF"/>
<path d="M308.903 138.235C308.903 141.289 306.434 143.765 303.387 143.765C300.341 143.765 297.871 141.289 297.871 138.235C297.871 135.181 300.341 132.706 303.387 132.706C306.434 132.706 308.903 135.181 308.903 138.235Z" fill="#E2EBFF"/>
<path d="M342 138.235C342 141.289 339.53 143.765 336.484 143.765C333.437 143.765 330.968 141.289 330.968 138.235C330.968 135.181 333.437 132.706 336.484 132.706C339.53 132.706 342 135.181 342 138.235Z" fill="#E2EBFF"/>
<path d="M11.0323 171.412C11.0323 174.466 8.5626 176.941 5.51613 176.941C2.46966 176.941 0 174.466 0 171.412C0 168.358 2.46966 165.882 5.51613 165.882C8.5626 165.882 11.0323 168.358 11.0323 171.412Z" fill="#E2EBFF"/>
<path d="M44.129 171.412C44.129 174.466 41.6594 176.941 38.6129 176.941C35.5664 176.941 33.0968 174.466 33.0968 171.412C33.0968 168.358 35.5664 165.882 38.6129 165.882C41.6594 165.882 44.129 168.358 44.129 171.412Z" fill="#E2EBFF"/>
<path d="M77.2258 171.412C77.2258 174.466 74.7561 176.941 71.7097 176.941C68.6632 176.941 66.1936 174.466 66.1936 171.412C66.1936 168.358 68.6632 165.882 71.7097 165.882C74.7561 165.882 77.2258 168.358 77.2258 171.412Z" fill="#E2EBFF"/>
<path d="M110.323 171.412C110.323 174.466 107.853 176.941 104.806 176.941C101.76 176.941 99.2903 174.466 99.2903 171.412C99.2903 168.358 101.76 165.882 104.806 165.882C107.853 165.882 110.323 168.358 110.323 171.412Z" fill="#E2EBFF"/>
<path d="M143.419 171.412C143.419 174.466 140.95 176.941 137.903 176.941C134.857 176.941 132.387 174.466 132.387 171.412C132.387 168.358 134.857 165.882 137.903 165.882C140.95 165.882 143.419 168.358 143.419 171.412Z" fill="#E2EBFF"/>
<path d="M176.516 171.412C176.516 174.466 174.046 176.941 171 176.941C167.954 176.941 165.484 174.466 165.484 171.412C165.484 168.358 167.954 165.882 171 165.882C174.046 165.882 176.516 168.358 176.516 171.412Z" fill="#E2EBFF"/>
<path d="M209.613 171.412C209.613 174.466 207.143 176.941 204.097 176.941C201.05 176.941 198.581 174.466 198.581 171.412C198.581 168.358 201.05 165.882 204.097 165.882C207.143 165.882 209.613 168.358 209.613 171.412Z" fill="#E2EBFF"/>
<path d="M242.71 171.412C242.71 174.466 240.24 176.941 237.194 176.941C234.147 176.941 231.677 174.466 231.677 171.412C231.677 168.358 234.147 165.882 237.194 165.882C240.24 165.882 242.71 168.358 242.71 171.412Z" fill="#E2EBFF"/>
<path d="M275.806 171.412C275.806 174.466 273.337 176.941 270.29 176.941C267.244 176.941 264.774 174.466 264.774 171.412C264.774 168.358 267.244 165.882 270.29 165.882C273.337 165.882 275.806 168.358 275.806 171.412Z" fill="#E2EBFF"/>
<path d="M308.903 171.412C308.903 174.466 306.434 176.941 303.387 176.941C300.341 176.941 297.871 174.466 297.871 171.412C297.871 168.358 300.341 165.882 303.387 165.882C306.434 165.882 308.903 168.358 308.903 171.412Z" fill="#E2EBFF"/>
<path d="M342 171.412C342 174.466 339.53 176.941 336.484 176.941C333.437 176.941 330.968 174.466 330.968 171.412C330.968 168.358 333.437 165.882 336.484 165.882C339.53 165.882 342 168.358 342 171.412Z" fill="#E2EBFF"/>
<path d="M11.0323 204.588C11.0323 207.642 8.5626 210.118 5.51613 210.118C2.46966 210.118 0 207.642 0 204.588C0 201.534 2.46966 199.059 5.51613 199.059C8.5626 199.059 11.0323 201.534 11.0323 204.588Z" fill="#E2EBFF"/>
<path d="M44.129 204.588C44.129 207.642 41.6594 210.118 38.6129 210.118C35.5664 210.118 33.0968 207.642 33.0968 204.588C33.0968 201.534 35.5664 199.059 38.6129 199.059C41.6594 199.059 44.129 201.534 44.129 204.588Z" fill="#E2EBFF"/>
<path d="M77.2258 204.588C77.2258 207.642 74.7561 210.118 71.7097 210.118C68.6632 210.118 66.1936 207.642 66.1936 204.588C66.1936 201.534 68.6632 199.059 71.7097 199.059C74.7561 199.059 77.2258 201.534 77.2258 204.588Z" fill="#E2EBFF"/>
<path d="M110.323 204.588C110.323 207.642 107.853 210.118 104.806 210.118C101.76 210.118 99.2903 207.642 99.2903 204.588C99.2903 201.534 101.76 199.059 104.806 199.059C107.853 199.059 110.323 201.534 110.323 204.588Z" fill="#E2EBFF"/>
<path d="M143.419 204.588C143.419 207.642 140.95 210.118 137.903 210.118C134.857 210.118 132.387 207.642 132.387 204.588C132.387 201.534 134.857 199.059 137.903 199.059C140.95 199.059 143.419 201.534 143.419 204.588Z" fill="#E2EBFF"/>
<path d="M176.516 204.588C176.516 207.642 174.046 210.118 171 210.118C167.954 210.118 165.484 207.642 165.484 204.588C165.484 201.534 167.954 199.059 171 199.059C174.046 199.059 176.516 201.534 176.516 204.588Z" fill="#E2EBFF"/>
<path d="M209.613 204.588C209.613 207.642 207.143 210.118 204.097 210.118C201.05 210.118 198.581 207.642 198.581 204.588C198.581 201.534 201.05 199.059 204.097 199.059C207.143 199.059 209.613 201.534 209.613 204.588Z" fill="#E2EBFF"/>
<path d="M242.71 204.588C242.71 207.642 240.24 210.118 237.194 210.118C234.147 210.118 231.677 207.642 231.677 204.588C231.677 201.534 234.147 199.059 237.194 199.059C240.24 199.059 242.71 201.534 242.71 204.588Z" fill="#E2EBFF"/>
<path d="M275.806 204.588C275.806 207.642 273.337 210.118 270.29 210.118C267.244 210.118 264.774 207.642 264.774 204.588C264.774 201.534 267.244 199.059 270.29 199.059C273.337 199.059 275.806 201.534 275.806 204.588Z" fill="#E2EBFF"/>
<path d="M308.903 204.588C308.903 207.642 306.434 210.118 303.387 210.118C300.341 210.118 297.871 207.642 297.871 204.588C297.871 201.534 300.341 199.059 303.387 199.059C306.434 199.059 308.903 201.534 308.903 204.588Z" fill="#E2EBFF"/>
<path d="M342 204.588C342 207.642 339.53 210.118 336.484 210.118C333.437 210.118 330.968 207.642 330.968 204.588C330.968 201.534 333.437 199.059 336.484 199.059C339.53 199.059 342 201.534 342 204.588Z" fill="#E2EBFF"/>
<path d="M11.0323 237.765C11.0323 240.819 8.5626 243.294 5.51613 243.294C2.46966 243.294 0 240.819 0 237.765C0 234.711 2.46966 232.235 5.51613 232.235C8.5626 232.235 11.0323 234.711 11.0323 237.765Z" fill="#E2EBFF"/>
<path d="M44.129 237.765C44.129 240.819 41.6594 243.294 38.6129 243.294C35.5664 243.294 33.0968 240.819 33.0968 237.765C33.0968 234.711 35.5664 232.235 38.6129 232.235C41.6594 232.235 44.129 234.711 44.129 237.765Z" fill="#E2EBFF"/>
<path d="M77.2258 237.765C77.2258 240.819 74.7561 243.294 71.7097 243.294C68.6632 243.294 66.1936 240.819 66.1936 237.765C66.1936 234.711 68.6632 232.235 71.7097 232.235C74.7561 232.235 77.2258 234.711 77.2258 237.765Z" fill="#E2EBFF"/>
<path d="M110.323 237.765C110.323 240.819 107.853 243.294 104.806 243.294C101.76 243.294 99.2903 240.819 99.2903 237.765C99.2903 234.711 101.76 232.235 104.806 232.235C107.853 232.235 110.323 234.711 110.323 237.765Z" fill="#E2EBFF"/>
<path d="M143.419 237.765C143.419 240.819 140.95 243.294 137.903 243.294C134.857 243.294 132.387 240.819 132.387 237.765C132.387 234.711 134.857 232.235 137.903 232.235C140.95 232.235 143.419 234.711 143.419 237.765Z" fill="#E2EBFF"/>
<path d="M176.516 237.765C176.516 240.819 174.046 243.294 171 243.294C167.954 243.294 165.484 240.819 165.484 237.765C165.484 234.711 167.954 232.235 171 232.235C174.046 232.235 176.516 234.711 176.516 237.765Z" fill="#E2EBFF"/>
<path d="M209.613 237.765C209.613 240.819 207.143 243.294 204.097 243.294C201.05 243.294 198.581 240.819 198.581 237.765C198.581 234.711 201.05 232.235 204.097 232.235C207.143 232.235 209.613 234.711 209.613 237.765Z" fill="#E2EBFF"/>
<path d="M242.71 237.765C242.71 240.819 240.24 243.294 237.194 243.294C234.147 243.294 231.677 240.819 231.677 237.765C231.677 234.711 234.147 232.235 237.194 232.235C240.24 232.235 242.71 234.711 242.71 237.765Z" fill="#E2EBFF"/>
<path d="M275.806 237.765C275.806 240.819 273.337 243.294 270.29 243.294C267.244 243.294 264.774 240.819 264.774 237.765C264.774 234.711 267.244 232.235 270.29 232.235C273.337 232.235 275.806 234.711 275.806 237.765Z" fill="#E2EBFF"/>
<path d="M308.903 237.765C308.903 240.819 306.434 243.294 303.387 243.294C300.341 243.294 297.871 240.819 297.871 237.765C297.871 234.711 300.341 232.235 303.387 232.235C306.434 232.235 308.903 234.711 308.903 237.765Z" fill="#E2EBFF"/>
<path d="M342 237.765C342 240.819 339.53 243.294 336.484 243.294C333.437 243.294 330.968 240.819 330.968 237.765C330.968 234.711 333.437 232.235 336.484 232.235C339.53 232.235 342 234.711 342 237.765Z" fill="#E2EBFF"/>
<path d="M11.0323 270.941C11.0323 273.995 8.5626 276.471 5.51613 276.471C2.46966 276.471 0 273.995 0 270.941C0 267.887 2.46966 265.412 5.51613 265.412C8.5626 265.412 11.0323 267.887 11.0323 270.941Z" fill="#E2EBFF"/>
<path d="M44.129 270.941C44.129 273.995 41.6594 276.471 38.6129 276.471C35.5664 276.471 33.0968 273.995 33.0968 270.941C33.0968 267.887 35.5664 265.412 38.6129 265.412C41.6594 265.412 44.129 267.887 44.129 270.941Z" fill="#E2EBFF"/>
<path d="M77.2258 270.941C77.2258 273.995 74.7561 276.471 71.7097 276.471C68.6632 276.471 66.1936 273.995 66.1936 270.941C66.1936 267.887 68.6632 265.412 71.7097 265.412C74.7561 265.412 77.2258 267.887 77.2258 270.941Z" fill="#E2EBFF"/>
<path d="M110.323 270.941C110.323 273.995 107.853 276.471 104.806 276.471C101.76 276.471 99.2903 273.995 99.2903 270.941C99.2903 267.887 101.76 265.412 104.806 265.412C107.853 265.412 110.323 267.887 110.323 270.941Z" fill="#E2EBFF"/>
<path d="M143.419 270.941C143.419 273.995 140.95 276.471 137.903 276.471C134.857 276.471 132.387 273.995 132.387 270.941C132.387 267.887 134.857 265.412 137.903 265.412C140.95 265.412 143.419 267.887 143.419 270.941Z" fill="#E2EBFF"/>
<path d="M176.516 270.941C176.516 273.995 174.046 276.471 171 276.471C167.954 276.471 165.484 273.995 165.484 270.941C165.484 267.887 167.954 265.412 171 265.412C174.046 265.412 176.516 267.887 176.516 270.941Z" fill="#E2EBFF"/>
<path d="M209.613 270.941C209.613 273.995 207.143 276.471 204.097 276.471C201.05 276.471 198.581 273.995 198.581 270.941C198.581 267.887 201.05 265.412 204.097 265.412C207.143 265.412 209.613 267.887 209.613 270.941Z" fill="#E2EBFF"/>
<path d="M242.71 270.941C242.71 273.995 240.24 276.471 237.194 276.471C234.147 276.471 231.677 273.995 231.677 270.941C231.677 267.887 234.147 265.412 237.194 265.412C240.24 265.412 242.71 267.887 242.71 270.941Z" fill="#E2EBFF"/>
<path d="M275.806 270.941C275.806 273.995 273.337 276.471 270.29 276.471C267.244 276.471 264.774 273.995 264.774 270.941C264.774 267.887 267.244 265.412 270.29 265.412C273.337 265.412 275.806 267.887 275.806 270.941Z" fill="#E2EBFF"/>
<path d="M308.903 270.941C308.903 273.995 306.434 276.471 303.387 276.471C300.341 276.471 297.871 273.995 297.871 270.941C297.871 267.887 300.341 265.412 303.387 265.412C306.434 265.412 308.903 267.887 308.903 270.941Z" fill="#E2EBFF"/>
<path d="M342 270.941C342 273.995 339.53 276.471 336.484 276.471C333.437 276.471 330.968 273.995 330.968 270.941C330.968 267.887 333.437 265.412 336.484 265.412C339.53 265.412 342 267.887 342 270.941Z" fill="#E2EBFF"/>
<path d="M11.0323 304.118C11.0323 307.171 8.5626 309.647 5.51613 309.647C2.46966 309.647 0 307.171 0 304.118C0 301.064 2.46966 298.588 5.51613 298.588C8.5626 298.588 11.0323 301.064 11.0323 304.118Z" fill="#E2EBFF"/>
<path d="M44.129 304.118C44.129 307.171 41.6594 309.647 38.6129 309.647C35.5664 309.647 33.0968 307.171 33.0968 304.118C33.0968 301.064 35.5664 298.588 38.6129 298.588C41.6594 298.588 44.129 301.064 44.129 304.118Z" fill="#E2EBFF"/>
<path d="M77.2258 304.118C77.2258 307.171 74.7561 309.647 71.7097 309.647C68.6632 309.647 66.1936 307.171 66.1936 304.118C66.1936 301.064 68.6632 298.588 71.7097 298.588C74.7561 298.588 77.2258 301.064 77.2258 304.118Z" fill="#E2EBFF"/>
<path d="M110.323 304.118C110.323 307.171 107.853 309.647 104.806 309.647C101.76 309.647 99.2903 307.171 99.2903 304.118C99.2903 301.064 101.76 298.588 104.806 298.588C107.853 298.588 110.323 301.064 110.323 304.118Z" fill="#E2EBFF"/>
<path d="M143.419 304.118C143.419 307.171 140.95 309.647 137.903 309.647C134.857 309.647 132.387 307.171 132.387 304.118C132.387 301.064 134.857 298.588 137.903 298.588C140.95 298.588 143.419 301.064 143.419 304.118Z" fill="#E2EBFF"/>
<path d="M176.516 304.118C176.516 307.171 174.046 309.647 171 309.647C167.954 309.647 165.484 307.171 165.484 304.118C165.484 301.064 167.954 298.588 171 298.588C174.046 298.588 176.516 301.064 176.516 304.118Z" fill="#E2EBFF"/>
<path d="M209.613 304.118C209.613 307.171 207.143 309.647 204.097 309.647C201.05 309.647 198.581 307.171 198.581 304.118C198.581 301.064 201.05 298.588 204.097 298.588C207.143 298.588 209.613 301.064 209.613 304.118Z" fill="#E2EBFF"/>
<path d="M242.71 304.118C242.71 307.171 240.24 309.647 237.194 309.647C234.147 309.647 231.677 307.171 231.677 304.118C231.677 301.064 234.147 298.588 237.194 298.588C240.24 298.588 242.71 301.064 242.71 304.118Z" fill="#E2EBFF"/>
<path d="M275.806 304.118C275.806 307.171 273.337 309.647 270.29 309.647C267.244 309.647 264.774 307.171 264.774 304.118C264.774 301.064 267.244 298.588 270.29 298.588C273.337 298.588 275.806 301.064 275.806 304.118Z" fill="#E2EBFF"/>
<path d="M308.903 304.118C308.903 307.171 306.434 309.647 303.387 309.647C300.341 309.647 297.871 307.171 297.871 304.118C297.871 301.064 300.341 298.588 303.387 298.588C306.434 298.588 308.903 301.064 308.903 304.118Z" fill="#E2EBFF"/>
<path d="M342 304.118C342 307.171 339.53 309.647 336.484 309.647C333.437 309.647 330.968 307.171 330.968 304.118C330.968 301.064 333.437 298.588 336.484 298.588C339.53 298.588 342 301.064 342 304.118Z" fill="#E2EBFF"/>
<path d="M11.0323 337.294C11.0323 340.348 8.5626 342.824 5.51613 342.824C2.46966 342.824 0 340.348 0 337.294C0 334.24 2.46966 331.765 5.51613 331.765C8.5626 331.765 11.0323 334.24 11.0323 337.294Z" fill="#E2EBFF"/>
<path d="M44.129 337.294C44.129 340.348 41.6594 342.824 38.6129 342.824C35.5664 342.824 33.0968 340.348 33.0968 337.294C33.0968 334.24 35.5664 331.765 38.6129 331.765C41.6594 331.765 44.129 334.24 44.129 337.294Z" fill="#E2EBFF"/>
<path d="M77.2258 337.294C77.2258 340.348 74.7561 342.824 71.7097 342.824C68.6632 342.824 66.1936 340.348 66.1936 337.294C66.1936 334.24 68.6632 331.765 71.7097 331.765C74.7561 331.765 77.2258 334.24 77.2258 337.294Z" fill="#E2EBFF"/>
<path d="M110.323 337.294C110.323 340.348 107.853 342.824 104.806 342.824C101.76 342.824 99.2903 340.348 99.2903 337.294C99.2903 334.24 101.76 331.765 104.806 331.765C107.853 331.765 110.323 334.24 110.323 337.294Z" fill="#E2EBFF"/>
<path d="M143.419 337.294C143.419 340.348 140.95 342.824 137.903 342.824C134.857 342.824 132.387 340.348 132.387 337.294C132.387 334.24 134.857 331.765 137.903 331.765C140.95 331.765 143.419 334.24 143.419 337.294Z" fill="#E2EBFF"/>
<path d="M176.516 337.294C176.516 340.348 174.046 342.824 171 342.824C167.954 342.824 165.484 340.348 165.484 337.294C165.484 334.24 167.954 331.765 171 331.765C174.046 331.765 176.516 334.24 176.516 337.294Z" fill="#E2EBFF"/>
<path d="M209.613 337.294C209.613 340.348 207.143 342.824 204.097 342.824C201.05 342.824 198.581 340.348 198.581 337.294C198.581 334.24 201.05 331.765 204.097 331.765C207.143 331.765 209.613 334.24 209.613 337.294Z" fill="#E2EBFF"/>
<path d="M242.71 337.294C242.71 340.348 240.24 342.824 237.194 342.824C234.147 342.824 231.677 340.348 231.677 337.294C231.677 334.24 234.147 331.765 237.194 331.765C240.24 331.765 242.71 334.24 242.71 337.294Z" fill="#E2EBFF"/>
<path d="M275.806 337.294C275.806 340.348 273.337 342.824 270.29 342.824C267.244 342.824 264.774 340.348 264.774 337.294C264.774 334.24 267.244 331.765 270.29 331.765C273.337 331.765 275.806 334.24 275.806 337.294Z" fill="#E2EBFF"/>
<path d="M308.903 337.294C308.903 340.348 306.434 342.824 303.387 342.824C300.341 342.824 297.871 340.348 297.871 337.294C297.871 334.24 300.341 331.765 303.387 331.765C306.434 331.765 308.903 334.24 308.903 337.294Z" fill="#E2EBFF"/>
<path d="M342 337.294C342 340.348 339.53 342.824 336.484 342.824C333.437 342.824 330.968 340.348 330.968 337.294C330.968 334.24 333.437 331.765 336.484 331.765C339.53 331.765 342 334.24 342 337.294Z" fill="#E2EBFF"/>
<path d="M11.0323 370.471C11.0323 373.524 8.5626 376 5.51613 376C2.46966 376 0 373.524 0 370.471C0 367.417 2.46966 364.941 5.51613 364.941C8.5626 364.941 11.0323 367.417 11.0323 370.471Z" fill="#E2EBFF"/>
<path d="M44.129 370.471C44.129 373.524 41.6594 376 38.6129 376C35.5664 376 33.0968 373.524 33.0968 370.471C33.0968 367.417 35.5664 364.941 38.6129 364.941C41.6594 364.941 44.129 367.417 44.129 370.471Z" fill="#E2EBFF"/>
<path d="M77.2258 370.471C77.2258 373.524 74.7561 376 71.7097 376C68.6632 376 66.1936 373.524 66.1936 370.471C66.1936 367.417 68.6632 364.941 71.7097 364.941C74.7561 364.941 77.2258 367.417 77.2258 370.471Z" fill="#E2EBFF"/>
<path d="M110.323 370.471C110.323 373.524 107.853 376 104.806 376C101.76 376 99.2903 373.524 99.2903 370.471C99.2903 367.417 101.76 364.941 104.806 364.941C107.853 364.941 110.323 367.417 110.323 370.471Z" fill="#E2EBFF"/>
<path d="M143.419 370.471C143.419 373.524 140.95 376 137.903 376C134.857 376 132.387 373.524 132.387 370.471C132.387 367.417 134.857 364.941 137.903 364.941C140.95 364.941 143.419 367.417 143.419 370.471Z" fill="#E2EBFF"/>
<path d="M176.516 370.471C176.516 373.524 174.046 376 171 376C167.954 376 165.484 373.524 165.484 370.471C165.484 367.417 167.954 364.941 171 364.941C174.046 364.941 176.516 367.417 176.516 370.471Z" fill="#E2EBFF"/>
<path d="M209.613 370.471C209.613 373.524 207.143 376 204.097 376C201.05 376 198.581 373.524 198.581 370.471C198.581 367.417 201.05 364.941 204.097 364.941C207.143 364.941 209.613 367.417 209.613 370.471Z" fill="#E2EBFF"/>
<path d="M242.71 370.471C242.71 373.524 240.24 376 237.194 376C234.147 376 231.677 373.524 231.677 370.471C231.677 367.417 234.147 364.941 237.194 364.941C240.24 364.941 242.71 367.417 242.71 370.471Z" fill="#E2EBFF"/>
<path d="M275.806 370.471C275.806 373.524 273.337 376 270.29 376C267.244 376 264.774 373.524 264.774 370.471C264.774 367.417 267.244 364.941 270.29 364.941C273.337 364.941 275.806 367.417 275.806 370.471Z" fill="#E2EBFF"/>
<path d="M308.903 370.471C308.903 373.524 306.434 376 303.387 376C300.341 376 297.871 373.524 297.871 370.471C297.871 367.417 300.341 364.941 303.387 364.941C306.434 364.941 308.903 367.417 308.903 370.471Z" fill="#E2EBFF"/>
<path d="M342 370.471C342 373.524 339.53 376 336.484 376C333.437 376 330.968 373.524 330.968 370.471C330.968 367.417 333.437 364.941 336.484 364.941C339.53 364.941 342 367.417 342 370.471Z" fill="#E2EBFF"/>
</svg>
