<svg width="262" height="44" viewBox="0 0 262 44" fill="none" xmlns="http://www.w3.org/2000/svg">
<g clip-path="url(#clip0_19_1126)">
<path d="M11.1883 1.77539H46.7153L43.6202 13.1435H21.7763L20.643 17.3508H40.9986L38.3177 27.3558H17.9622L16.7106 31.8576H38.8505L35.8145 43.2258H0L11.1883 1.77539Z" fill="white"/>
<path d="M42.7915 31.3865C42.7915 19.606 50.3519 10.1312 59.8742 10.1312C64.517 10.1312 67.553 12.2012 69.3966 15.0453L73.4474 0H86.9614L75.3586 43.2259H61.8531L62.7495 39.9105C60.4324 42.275 56.9144 44 53.464 44C47.688 44 42.8084 39.3804 42.8084 31.3865H42.7915ZM66.9526 25.7571C66.9526 22.9719 65.109 21.1375 62.6058 21.1375C58.9186 21.1375 56.2378 24.6296 56.2378 28.4246C56.2378 31.2098 58.0814 33.0442 60.5846 33.0442C64.2718 33.0442 66.9526 29.5521 66.9526 25.7571Z" fill="white"/>
<path d="M82.437 34.1128C82.437 32.4551 82.6738 30.6207 83.215 28.6685L87.9762 10.9053H101.482L97.1349 27.0108C96.8981 27.8439 96.7797 28.7863 96.7797 29.4427C96.7797 31.1592 97.6762 32.2868 99.6381 32.2868C102.319 32.2868 103.748 30.5113 104.695 27.0193L109.042 10.9137H122.556L113.871 43.2426H100.365L101.439 39.212C99.2999 41.8206 95.7818 44.0084 91.7395 44.0084C85.7859 44.0084 82.4539 40.1629 82.4539 34.1212L82.437 34.1128Z" fill="white"/>
<path d="M129.034 1.77539H142.066L151.529 21.5497L156.882 1.77539H170.692L159.504 43.2258H147.123L137.246 22.6184L131.656 43.2258H117.846L129.034 1.77539Z" fill="#437FFF"/>
<path d="M184.147 34.5249C186.345 34.5249 188.434 33.633 190.692 31.9164L196.942 38.7238C193.255 41.9803 188.73 43.9914 183.013 43.9914C173.136 43.9914 167.064 38.2442 167.064 29.7791C167.064 19.9508 174.447 10.1226 186.819 10.1226C197.534 10.1226 201.103 17.3507 201.103 24.1581C201.103 26.287 200.747 28.3654 200.147 30.1998H179.259C179.436 32.8083 181.102 34.5249 184.138 34.5249H184.147ZM189.263 24.2843C189.441 23.8131 189.5 23.3335 189.5 22.8623C189.5 21.0868 188.189 19.4291 185.99 19.4291C183.969 19.4291 181.347 20.6745 180.096 24.2843H189.263Z" fill="#437FFF"/>
<path d="M198.616 38.606L204.57 30.9066C207.487 33.2123 212.545 35.2907 216.232 35.2907C217.602 35.2907 218.134 34.7605 218.134 34.1631C218.134 33.0944 217.12 32.5643 213.077 31.0834C207.843 29.1901 204.206 26.8171 204.206 21.7263C204.206 15.2723 209.678 10.1226 219.445 10.1226C225.991 10.1226 231.53 12.0747 234.803 14.5655L228.849 22.2648C226.346 20.5483 222.185 18.8317 218.972 18.8317C217.483 18.8317 216.832 19.244 216.832 19.9003C216.832 20.7923 217.543 21.1457 221.534 22.5678C226.71 24.4022 230.76 26.6573 230.76 32.3371C230.76 37.7225 226.955 43.9998 216.003 43.9998C208.621 43.9998 202.616 41.6353 198.625 38.6144L198.616 38.606Z" fill="#437FFF"/>
<path d="M235.04 35.1142C235.04 33.751 235.277 32.2701 235.691 30.6124L238.194 21.2553H234.389L237.188 10.8885H240.993L243.192 2.77686H256.698L254.499 10.8885H262L259.201 21.2553H251.7L249.856 28.1806C249.56 29.2492 249.442 30.015 249.442 30.6713C249.442 32.0345 250.279 32.7413 252.182 32.7413C253.256 32.7413 254.203 32.5646 256.106 32.0345L253.188 42.9903C250.871 43.5793 248.605 43.9411 246.347 43.9411C238.727 43.9411 235.04 41.0381 235.04 35.1142Z" fill="#437FFF"/>
</g>
<defs>
<clipPath id="clip0_19_1126">
<rect width="262" height="44" fill="white"/>
</clipPath>
</defs>
</svg>
